<svg width="64" height="64" viewBox="0 0 1024 1024" fill="none" xmlns="http://www.w3.org/2000/svg">
  <defs>
    <linearGradient id="shieldGrad" x1="280" y1="220" x2="760" y2="760" gradientUnits="userSpaceOnUse">
      <stop offset="0%" stop-color="#35D0C4"/>
      <stop offset="55%" stop-color="#3457B2"/>
      <stop offset="100%" stop-color="#8E2DE2"/>
    </linearGradient>
  </defs>

  <circle cx="512" cy="512" r="512" fill="#0B0F19"/>

  <path d="M512 188
           C448 220 381 232 337 238
           C320 306 320 423 354 525
           C388 628 450 704 512 742
           C574 704 636 628 670 525
           C704 423 704 306 687 238
           C643 232 576 220 512 188Z"
        fill="url(#shieldGrad)"/>

  <rect x="430" y="468" width="48" height="86" rx="2" fill="white" fill-opacity="1"/>
  <rect x="496" y="432" width="48" height="122" rx="2" fill="white" fill-opacity="1"/>
  <rect x="562" y="392" width="48" height="162" rx="2" fill="white" fill-opacity="1"/>

  <path d="M345 584H438L462 624L490 544L522 636L551 552L570 584L676 452"
        stroke="white" stroke-width="24" stroke-linecap="round" stroke-linejoin="round"/>
</svg>