<?xml version="1.0" encoding="UTF-8" standalone="no"?>
<svg width="1024" height="1024" viewBox="0 0 1024 1024" fill="none" xmlns="http://www.w3.org/2000/svg">
  <defs>
    <linearGradient id="shieldGrad" x1="280" y1="220" x2="760" y2="760" gradientUnits="userSpaceOnUse">
      <stop offset="0%" stop-color="#35D0C4"/>
      <stop offset="55%" stop-color="#3457B2"/>
      <stop offset="100%" stop-color="#8E2DE2"/>
    </linearGradient>
    <linearGradient id="textGrad" x1="180" y1="0" x2="860" y2="0" gradientUnits="userSpaceOnUse">
      <stop offset="0%" stop-color="#35D0C4"/>
      <stop offset="50%" stop-color="#3457B2"/>
      <stop offset="100%" stop-color="#5B21B6"/>
    </linearGradient>
    <linearGradient id="glossGrad" x1="365" y1="530" x2="690" y2="740" gradientUnits="userSpaceOnUse">
      <stop offset="0%" stop-color="white" stop-opacity="0.28"/>
      <stop offset="100%" stop-color="white" stop-opacity="0"/>
    </linearGradient>
    <filter id="softShadow" x="140" y="160" width="744" height="720" filterUnits="userSpaceOnUse">
      <feDropShadow dx="0" dy="18" stdDeviation="20" flood-color="#1F2A44" flood-opacity="0.16"/>
    </filter>
  </defs>

  <rect width="1024" height="1024" fill="#F5F7FB"/>

  <g filter="url(#softShadow)">
    <path d="M512 188
             C448 220 381 232 337 238
             C320 306 320 423 354 525
             C388 628 450 704 512 742
             C574 704 636 628 670 525
             C704 423 704 306 687 238
             C643 232 576 220 512 188Z"
          fill="url(#shieldGrad)"/>

    <path d="M366 560
             C432 560 468 560 512 560
             C566 560 618 532 675 470"
          stroke="url(#glossGrad)" stroke-width="20" stroke-linecap="round" opacity="0.9"/>

    <rect x="430" y="468" width="48" height="86" rx="2" fill="white" fill-opacity="0.92"/>
    <rect x="496" y="432" width="48" height="122" rx="2" fill="white" fill-opacity="0.92"/>
    <rect x="562" y="392" width="48" height="162" rx="2" fill="white" fill-opacity="0.92"/>

    <path d="M345 584H438L462 624L490 544L522 636L551 552L570 584L676 452"
          stroke="white" stroke-width="18" stroke-linecap="round" stroke-linejoin="round"/>
    <path d="M668 460L728 420L716 481"
          fill="white"/>
  </g>

  <text x="512" y="900"
        text-anchor="middle"
        font-family="Arial, Helvetica, sans-serif"
        font-size="110"
        font-weight="700"
        fill="url(#textGrad)">FinPulse</text>
</svg>
